<?xml version="1.0" encoding="UTF-8"?><svg xmlns="http://www.w3.org/2000/svg" xmlns:xlink="http://www.w3.org/1999/xlink" width="240pt" zoomAndPan="magnify" viewBox="0 0 240 44.999999" height="44.999999pt" preserveAspectRatio="xMidYMid meet" version="1.2"><defs><g/></defs><g xml:id="surface1" id="surface1"><g style="fill:rgb(100%,100%,100%);fill-opacity:1;"><g transform="translate(0.023263, 34.705853)"><path style="stroke:none;" d="M 13.671875 -28.34375 C 14.796875 -28.34375 15.847656 -28.128906 16.828125 -27.703125 C 17.816406 -27.273438 18.675781 -26.703125 19.40625 -25.984375 C 20.144531 -25.265625 20.726562 -24.414062 21.15625 -23.4375 C 21.582031 -22.46875 21.796875 -21.425781 21.796875 -20.3125 C 21.796875 -19.1875 21.582031 -18.128906 21.15625 -17.140625 C 20.726562 -16.160156 20.144531 -15.3125 19.40625 -14.59375 C 18.675781 -13.875 17.816406 -13.304688 16.828125 -12.890625 C 15.847656 -12.484375 14.796875 -12.28125 13.671875 -12.28125 L 6.3125 -12.234375 L 6.3125 0 L 2.15625 0 L 2.15625 -28.34375 Z M 13.671875 -16.15625 C 14.234375 -16.15625 14.757812 -16.265625 15.25 -16.484375 C 15.75 -16.710938 16.179688 -17.015625 16.546875 -17.390625 C 16.921875 -17.765625 17.210938 -18.210938 17.421875 -18.734375 C 17.640625 -19.253906 17.75 -19.804688 17.75 -20.390625 C 17.75 -20.972656 17.640625 -21.519531 17.421875 -22.03125 C 17.210938 -22.539062 16.921875 -22.988281 16.546875 -23.375 C 16.179688 -23.757812 15.75 -24.0625 15.25 -24.28125 C 14.757812 -24.507812 14.234375 -24.625 13.671875 -24.625 L 6.3125 -24.625 L 6.3125 -16.15625 Z M 13.671875 -16.15625 "/></g></g><g style="fill:rgb(100%,100%,100%);fill-opacity:1;"><g transform="translate(23.287445, 34.705853)"><path style="stroke:none;" d="M 13.796875 -15.59375 C 13.609375 -15.675781 13.421875 -15.753906 13.234375 -15.828125 C 13.078125 -15.878906 12.890625 -15.929688 12.671875 -15.984375 C 12.460938 -16.046875 12.238281 -16.078125 12 -16.078125 C 11.21875 -16.078125 10.492188 -15.945312 9.828125 -15.6875 C 9.171875 -15.4375 8.597656 -15.097656 8.109375 -14.671875 C 7.628906 -14.242188 7.25 -13.742188 6.96875 -13.171875 C 6.695312 -12.597656 6.5625 -11.992188 6.5625 -11.359375 L 6.515625 0 L 2.640625 0 L 2.640625 -19.15625 L 5.71875 -19.15625 L 6.515625 -17.03125 C 7.046875 -17.800781 7.742188 -18.421875 8.609375 -18.890625 C 9.484375 -19.359375 10.570312 -19.59375 11.875 -19.59375 C 12.726562 -19.59375 13.703125 -19.472656 14.796875 -19.234375 Z M 13.796875 -15.59375 "/></g></g><g style="fill:rgb(100%,100%,100%);fill-opacity:1;"><g transform="translate(38.39717, 34.705853)"><path style="stroke:none;" d="M 10.640625 0.484375 C 9.304688 0.484375 8.054688 0.222656 6.890625 -0.296875 C 5.734375 -0.816406 4.722656 -1.53125 3.859375 -2.4375 C 2.992188 -3.34375 2.304688 -4.410156 1.796875 -5.640625 C 1.296875 -6.867188 1.046875 -8.175781 1.046875 -9.5625 C 1.046875 -10.945312 1.296875 -12.25 1.796875 -13.46875 C 2.304688 -14.695312 2.992188 -15.765625 3.859375 -16.671875 C 4.722656 -17.578125 5.734375 -18.289062 6.890625 -18.8125 C 8.054688 -19.332031 9.304688 -19.59375 10.640625 -19.59375 C 11.941406 -19.59375 13.175781 -19.332031 14.34375 -18.8125 C 15.519531 -18.289062 16.539062 -17.578125 17.40625 -16.671875 C 18.28125 -15.765625 18.96875 -14.695312 19.46875 -13.46875 C 19.976562 -12.25 20.234375 -10.945312 20.234375 -9.5625 C 20.234375 -8.175781 19.976562 -6.867188 19.46875 -5.640625 C 18.96875 -4.410156 18.28125 -3.34375 17.40625 -2.4375 C 16.539062 -1.53125 15.519531 -0.816406 14.34375 -0.296875 C 13.175781 0.222656 11.941406 0.484375 10.640625 0.484375 Z M 10.640625 -16.109375 C 9.859375 -16.109375 9.117188 -15.9375 8.421875 -15.59375 C 7.734375 -15.25 7.128906 -14.78125 6.609375 -14.1875 C 6.097656 -13.601562 5.691406 -12.910156 5.390625 -12.109375 C 5.097656 -11.316406 4.953125 -10.46875 4.953125 -9.5625 C 4.953125 -8.65625 5.097656 -7.800781 5.390625 -7 C 5.691406 -6.195312 6.097656 -5.492188 6.609375 -4.890625 C 7.128906 -4.296875 7.734375 -3.820312 8.421875 -3.46875 C 9.117188 -3.125 9.859375 -2.953125 10.640625 -2.953125 C 11.410156 -2.953125 12.140625 -3.125 12.828125 -3.46875 C 13.523438 -3.820312 14.125 -4.296875 14.625 -4.890625 C 15.132812 -5.492188 15.535156 -6.195312 15.828125 -7 C 16.128906 -7.800781 16.28125 -8.65625 16.28125 -9.5625 C 16.28125 -10.46875 16.128906 -11.316406 15.828125 -12.109375 C 15.535156 -12.910156 15.132812 -13.601562 14.625 -14.1875 C 14.125 -14.78125 13.523438 -15.25 12.828125 -15.59375 C 12.140625 -15.9375 11.410156 -16.109375 10.640625 -16.109375 Z M 10.640625 -16.109375 "/></g></g><g style="fill:rgb(100%,100%,100%);fill-opacity:1;"><g transform="translate(59.502822, 34.705853)"><path style="stroke:none;" d=""/></g></g><g style="fill:rgb(100%,100%,100%);fill-opacity:1;"><g transform="translate(69.935724, 34.705853)"><path style="stroke:none;" d="M 7.875 -24.59375 L 0.203125 -24.59375 L 0.203125 -28.34375 L 19.75 -28.34375 L 19.75 -24.59375 L 12.03125 -24.59375 L 12.03125 0 L 7.875 0 Z M 7.875 -24.59375 "/></g></g><g style="fill:rgb(100%,100%,100%);fill-opacity:1;"><g transform="translate(90.801538, 34.705853)"><path style="stroke:none;" d="M 10.640625 0.484375 C 9.304688 0.484375 8.054688 0.222656 6.890625 -0.296875 C 5.734375 -0.816406 4.722656 -1.53125 3.859375 -2.4375 C 2.992188 -3.34375 2.304688 -4.410156 1.796875 -5.640625 C 1.296875 -6.867188 1.046875 -8.175781 1.046875 -9.5625 C 1.046875 -10.945312 1.296875 -12.25 1.796875 -13.46875 C 2.304688 -14.695312 2.992188 -15.765625 3.859375 -16.671875 C 4.722656 -17.578125 5.734375 -18.289062 6.890625 -18.8125 C 8.054688 -19.332031 9.304688 -19.59375 10.640625 -19.59375 C 11.941406 -19.59375 13.175781 -19.332031 14.34375 -18.8125 C 15.519531 -18.289062 16.539062 -17.578125 17.40625 -16.671875 C 18.28125 -15.765625 18.96875 -14.695312 19.46875 -13.46875 C 19.976562 -12.25 20.234375 -10.945312 20.234375 -9.5625 C 20.234375 -8.175781 19.976562 -6.867188 19.46875 -5.640625 C 18.96875 -4.410156 18.28125 -3.34375 17.40625 -2.4375 C 16.539062 -1.53125 15.519531 -0.816406 14.34375 -0.296875 C 13.175781 0.222656 11.941406 0.484375 10.640625 0.484375 Z M 10.640625 -16.109375 C 9.859375 -16.109375 9.117188 -15.9375 8.421875 -15.59375 C 7.734375 -15.25 7.128906 -14.78125 6.609375 -14.1875 C 6.097656 -13.601562 5.691406 -12.910156 5.390625 -12.109375 C 5.097656 -11.316406 4.953125 -10.46875 4.953125 -9.5625 C 4.953125 -8.65625 5.097656 -7.800781 5.390625 -7 C 5.691406 -6.195312 6.097656 -5.492188 6.609375 -4.890625 C 7.128906 -4.296875 7.734375 -3.820312 8.421875 -3.46875 C 9.117188 -3.125 9.859375 -2.953125 10.640625 -2.953125 C 11.410156 -2.953125 12.140625 -3.125 12.828125 -3.46875 C 13.523438 -3.820312 14.125 -4.296875 14.625 -4.890625 C 15.132812 -5.492188 15.535156 -6.195312 15.828125 -7 C 16.128906 -7.800781 16.28125 -8.65625 16.28125 -9.5625 C 16.28125 -10.46875 16.128906 -11.316406 15.828125 -12.109375 C 15.535156 -12.910156 15.132812 -13.601562 14.625 -14.1875 C 14.125 -14.78125 13.523438 -15.25 12.828125 -15.59375 C 12.140625 -15.9375 11.410156 -16.109375 10.640625 -16.109375 Z M 10.640625 -16.109375 "/></g></g><g style="fill:rgb(100%,100%,100%);fill-opacity:1;"><g transform="translate(111.90719, 34.705853)"><path style="stroke:none;" d="M 10.640625 0.484375 C 9.304688 0.484375 8.054688 0.222656 6.890625 -0.296875 C 5.734375 -0.816406 4.722656 -1.53125 3.859375 -2.4375 C 2.992188 -3.34375 2.304688 -4.410156 1.796875 -5.640625 C 1.296875 -6.867188 1.046875 -8.175781 1.046875 -9.5625 C 1.046875 -10.945312 1.296875 -12.25 1.796875 -13.46875 C 2.304688 -14.695312 2.992188 -15.765625 3.859375 -16.671875 C 4.722656 -17.578125 5.734375 -18.289062 6.890625 -18.8125 C 8.054688 -19.332031 9.304688 -19.59375 10.640625 -19.59375 C 11.941406 -19.59375 13.175781 -19.332031 14.34375 -18.8125 C 15.519531 -18.289062 16.539062 -17.578125 17.40625 -16.671875 C 18.28125 -15.765625 18.96875 -14.695312 19.46875 -13.46875 C 19.976562 -12.25 20.234375 -10.945312 20.234375 -9.5625 C 20.234375 -8.175781 19.976562 -6.867188 19.46875 -5.640625 C 18.96875 -4.410156 18.28125 -3.34375 17.40625 -2.4375 C 16.539062 -1.53125 15.519531 -0.816406 14.34375 -0.296875 C 13.175781 0.222656 11.941406 0.484375 10.640625 0.484375 Z M 10.640625 -16.109375 C 9.859375 -16.109375 9.117188 -15.9375 8.421875 -15.59375 C 7.734375 -15.25 7.128906 -14.78125 6.609375 -14.1875 C 6.097656 -13.601562 5.691406 -12.910156 5.390625 -12.109375 C 5.097656 -11.316406 4.953125 -10.46875 4.953125 -9.5625 C 4.953125 -8.65625 5.097656 -7.800781 5.390625 -7 C 5.691406 -6.195312 6.097656 -5.492188 6.609375 -4.890625 C 7.128906 -4.296875 7.734375 -3.820312 8.421875 -3.46875 C 9.117188 -3.125 9.859375 -2.953125 10.640625 -2.953125 C 11.410156 -2.953125 12.140625 -3.125 12.828125 -3.46875 C 13.523438 -3.820312 14.125 -4.296875 14.625 -4.890625 C 15.132812 -5.492188 15.535156 -6.195312 15.828125 -7 C 16.128906 -7.800781 16.28125 -8.65625 16.28125 -9.5625 C 16.28125 -10.46875 16.128906 -11.316406 15.828125 -12.109375 C 15.535156 -12.910156 15.132812 -13.601562 14.625 -14.1875 C 14.125 -14.78125 13.523438 -15.25 12.828125 -15.59375 C 12.140625 -15.9375 11.410156 -16.109375 10.640625 -16.109375 Z M 10.640625 -16.109375 "/></g></g><g style="fill:rgb(100%,100%,100%);fill-opacity:1;"><g transform="translate(133.012842, 34.705853)"><path style="stroke:none;" d="M 6.3125 -29.1875 L 6.3125 0 L 2.4375 0 L 2.4375 -29.1875 Z M 6.3125 -29.1875 "/></g></g><g style="fill:rgb(100%,100%,100%);fill-opacity:1;"><g transform="translate(141.487083, 34.705853)"><path style="stroke:none;" d="M 11.15625 -4 C 11.394531 -4.207031 11.609375 -4.445312 11.796875 -4.71875 C 11.984375 -4.988281 12.078125 -5.296875 12.078125 -5.640625 C 12.078125 -6.066406 11.921875 -6.425781 11.609375 -6.71875 C 11.304688 -7.007812 10.9375 -7.253906 10.5 -7.453125 C 10.0625 -7.648438 9.597656 -7.800781 9.109375 -7.90625 C 8.628906 -8.019531 8.234375 -8.117188 7.921875 -8.203125 C 7.035156 -8.410156 6.207031 -8.664062 5.4375 -8.96875 C 4.664062 -9.28125 3.992188 -9.65625 3.421875 -10.09375 C 2.847656 -10.53125 2.394531 -11.050781 2.0625 -11.65625 C 1.726562 -12.257812 1.5625 -12.972656 1.5625 -13.796875 C 1.5625 -14.566406 1.742188 -15.289062 2.109375 -15.96875 C 2.484375 -16.65625 2.984375 -17.253906 3.609375 -17.765625 C 4.242188 -18.285156 4.976562 -18.695312 5.8125 -19 C 6.65625 -19.3125 7.546875 -19.46875 8.484375 -19.46875 C 9.304688 -19.46875 10.085938 -19.347656 10.828125 -19.109375 C 11.578125 -18.867188 12.25 -18.539062 12.84375 -18.125 C 13.445312 -17.71875 13.957031 -17.21875 14.375 -16.625 C 14.789062 -16.039062 15.0625 -15.390625 15.1875 -14.671875 L 11.71875 -13.828125 C 11.550781 -14.472656 11.203125 -15.007812 10.671875 -15.4375 C 10.140625 -15.863281 9.410156 -16.078125 8.484375 -16.078125 C 8.160156 -16.078125 7.820312 -16.03125 7.46875 -15.9375 C 7.125 -15.84375 6.804688 -15.703125 6.515625 -15.515625 C 6.222656 -15.328125 5.976562 -15.097656 5.78125 -14.828125 C 5.582031 -14.566406 5.484375 -14.265625 5.484375 -13.921875 C 5.484375 -13.546875 5.59375 -13.222656 5.8125 -12.953125 C 6.039062 -12.691406 6.316406 -12.472656 6.640625 -12.296875 C 6.960938 -12.117188 7.304688 -11.976562 7.671875 -11.875 C 8.046875 -11.769531 8.394531 -11.675781 8.71875 -11.59375 C 10.125 -11.25 11.296875 -10.875 12.234375 -10.46875 C 13.171875 -10.070312 13.914062 -9.632812 14.46875 -9.15625 C 15.03125 -8.675781 15.425781 -8.148438 15.65625 -7.578125 C 15.882812 -7.003906 16 -6.359375 16 -5.640625 C 16 -4.785156 15.800781 -3.984375 15.40625 -3.234375 C 15.019531 -2.492188 14.488281 -1.847656 13.8125 -1.296875 C 13.132812 -0.753906 12.320312 -0.328125 11.375 -0.015625 C 10.425781 0.285156 9.40625 0.4375 8.3125 0.4375 C 6.664062 0.4375 5.191406 0.03125 3.890625 -0.78125 C 2.597656 -1.59375 1.726562 -2.675781 1.28125 -4.03125 L 4.5625 -5.515625 C 4.988281 -4.585938 5.535156 -3.957031 6.203125 -3.625 C 6.867188 -3.289062 7.628906 -3.125 8.484375 -3.125 C 9.546875 -3.125 10.4375 -3.414062 11.15625 -4 Z M 11.15625 -4 "/></g></g><g style="fill:rgb(100%,100%,100%);fill-opacity:1;"><g transform="translate(158.675393, 34.705853)"><path style="stroke:none;" d=""/></g></g><g style="fill:rgb(100%,100%,100%);fill-opacity:1;"><g transform="translate(169.108294, 34.705853)"><path style="stroke:none;" d="M 1.84375 -31.78125 L 4.484375 -31.78125 L 4.484375 6.03125 L 1.84375 6.03125 Z M 1.84375 -31.78125 "/></g></g><g style="fill:rgb(100%,100%,100%);fill-opacity:1;"><g transform="translate(175.344059, 34.705853)"><path style="stroke:none;" d=""/></g></g><g style="fill:rgb(42.349243%,14.118958%,86.669922%);fill-opacity:1;"><g transform="translate(185.768558, 34.705853)"><path style="stroke:none;" d="M 13.640625 -15.1875 L 27.265625 0.046875 L 21.625 0.046875 L 10.875 -12.4375 L 6.390625 -7.953125 L 6.390625 0 L 2.234375 0 L 2.234375 -28.34375 L 6.390625 -28.34375 L 6.390625 -13.109375 L 9.515625 -16.4375 L 21.3125 -28.34375 L 26.796875 -28.34375 Z M 13.640625 -15.1875 "/></g></g><g style="fill:rgb(42.349243%,14.118958%,86.669922%);fill-opacity:1;"><g transform="translate(213.749532, 34.705853)"><path style="stroke:none;" d="M 25.625 0 L 20.390625 0 L 11.46875 -12.234375 L 6.515625 -12.234375 L 6.515625 0 L 2.3125 0 L 2.3125 -28.34375 L 13.828125 -28.34375 C 14.953125 -28.34375 16.015625 -28.128906 17.015625 -27.703125 C 18.015625 -27.273438 18.878906 -26.703125 19.609375 -25.984375 C 20.347656 -25.265625 20.925781 -24.414062 21.34375 -23.4375 C 21.769531 -22.46875 21.984375 -21.425781 21.984375 -20.3125 C 21.984375 -19.375 21.835938 -18.492188 21.546875 -17.671875 C 21.253906 -16.847656 20.847656 -16.101562 20.328125 -15.4375 C 19.804688 -14.769531 19.1875 -14.1875 18.46875 -13.6875 C 17.75 -13.195312 16.960938 -12.832031 16.109375 -12.59375 Z M 13.828125 -16.15625 C 14.390625 -16.15625 14.921875 -16.265625 15.421875 -16.484375 C 15.929688 -16.710938 16.363281 -17.015625 16.71875 -17.390625 C 17.082031 -17.765625 17.367188 -18.210938 17.578125 -18.734375 C 17.796875 -19.253906 17.90625 -19.804688 17.90625 -20.390625 C 17.90625 -20.972656 17.796875 -21.519531 17.578125 -22.03125 C 17.367188 -22.539062 17.082031 -22.988281 16.71875 -23.375 C 16.363281 -23.757812 15.929688 -24.0625 15.421875 -24.28125 C 14.921875 -24.507812 14.390625 -24.625 13.828125 -24.625 L 6.515625 -24.625 L 6.515625 -16.109375 Z M 13.828125 -16.15625 "/></g></g></g></svg>